<?xml version="1.0" standalone="no"?>
<!DOCTYPE svg PUBLIC "-//W3C//DTD SVG 20010904//EN"
 "http://www.w3.org/TR/2001/REC-SVG-20010904/DTD/svg10.dtd">
<svg version="1.0" xmlns="http://www.w3.org/2000/svg"
 width="580.000000pt" height="426.000000pt" viewBox="0 0 580.000000 426.000000"
 preserveAspectRatio="xMidYMid meet">

<g transform="translate(0.000000,426.000000) scale(0.100000,-0.100000)"
fill="#000000" stroke="none">
<path d="M3085 3413 c-63 -15 -333 -81 -470 -113 -44 -11 -199 -48 -345 -83
-146 -35 -339 -82 -430 -103 -91 -21 -489 -120 -885 -219 l-720 -180 -3 -78
c-3 -75 -2 -77 23 -87 15 -6 25 -17 25 -29 0 -26 -17 -36 -35 -21 -13 11 -15
5 -15 -40 0 -34 6 -60 15 -70 13 -14 16 -58 18 -261 2 -239 2 -245 -20 -276
-20 -27 -23 -44 -23 -125 0 -51 -5 -178 -10 -282 -6 -104 -7 -193 -2 -198 4
-4 73 -18 152 -30 l145 -23 -70 -16 c-38 -9 -63 -19 -55 -22 27 -10 233 -46
330 -58 52 -6 117 -17 144 -25 27 -8 70 -14 95 -14 25 0 129 -11 231 -25 617
-80 734 -96 815 -110 50 -8 133 -20 185 -25 52 -6 147 -17 210 -25 533 -69
583 -69 739 2 25 11 57 14 124 11 85 -4 95 -2 151 25 34 16 119 56 189 88
l129 59 131 -11 c120 -9 195 -19 372 -48 120 -20 532 -62 606 -61 72 0 173 22
193 41 6 5 48 9 95 9 l85 0 175 82 c96 45 192 93 214 107 l40 26 -7 135 c-11
225 -24 435 -41 645 -9 110 -24 316 -34 458 -10 142 -23 263 -28 268 -9 9 -38
-14 -38 -30 0 -3 -12 -16 -27 -29 -22 -19 -31 -21 -48 -12 -31 17 -24 34 24
55 43 19 68 56 45 64 -6 1 -31 19 -56 38 -31 23 -60 37 -83 38 -21 2 -47 8
-59 14 -39 21 -22 4 37 -35 l57 -39 -52 -3 c-37 -2 -63 3 -92 17 -22 12 -48
21 -58 21 -33 0 -63 29 -63 61 0 27 3 29 36 29 20 0 53 -10 73 -22 20 -11 31
-15 24 -8 -8 9 -9 19 -2 31 8 15 -3 27 -66 74 -66 48 -117 72 -101 46 3 -4 8
-62 11 -127 3 -65 9 -144 15 -174 18 -101 29 -304 24 -429 -2 -69 -6 -126 -8
-128 -5 -6 -14 115 -26 362 -13 255 -17 286 -33 284 -25 -3 -44 2 -63 16 -18
13 -17 14 11 10 17 -2 37 -6 46 -10 15 -6 16 4 12 92 -2 54 -5 104 -5 111 -1
6 -7 12 -15 12 -7 0 -284 -65 -615 -144 -332 -80 -612 -146 -623 -148 -18 -3
-20 7 -32 127 -16 158 -16 159 -43 143 -27 -17 -50 3 -30 27 7 8 11 17 9 19
-2 2 -35 27 -72 56 -58 44 -74 51 -100 47 -23 -3 -48 4 -89 25 -60 32 -68 46
-44 71 12 12 2 23 -77 79 -115 80 -111 78 -125 69 -8 -5 -8 -14 3 -34 7 -15
10 -29 5 -32 -4 -3 -7 -33 -6 -68 2 -34 4 -89 5 -122 1 -33 5 -54 8 -47 8 19
23 14 23 -9 0 -13 -4 -18 -12 -13 -8 5 -9 -4 -5 -32 3 -21 12 -73 18 -114 18
-111 18 -602 0 -584 -4 4 -10 86 -15 209 -6 168 -27 491 -32 515 -4 14 -8 88
-11 165 -7 192 -6 185 -23 184 -8 -1 -42 -8 -75 -16z m-17 -61 c2 -7 -6 -12
-18 -12 -12 0 -29 -4 -38 -9 -9 -5 -30 -11 -47 -14 -16 -3 -52 -10 -78 -17
-26 -7 -51 -10 -54 -6 -3 3 -11 2 -17 -3 -6 -6 -59 -19 -116 -31 -58 -11 -112
-23 -120 -27 -8 -3 -22 -7 -30 -8 -8 -1 -21 -4 -29 -6 -7 -2 -15 1 -18 7 -4
11 111 42 131 36 5 -2 12 1 15 6 8 12 251 63 263 56 5 -3 17 1 26 9 16 14 97
37 116 33 6 -1 12 -8 14 -14z m159 -79 c-3 -10 -5 -4 -5 12 0 17 2 24 5 18 2
-7 2 -21 0 -30z m211 -90 c58 -38 110 -71 116 -75 8 -6 7 -11 -2 -17 -22 -14
-102 -1 -165 27 -31 14 -60 22 -63 19 -8 -7 -66 21 -76 37 -4 6 -8 25 -8 42 0
30 2 31 46 33 41 1 57 -6 152 -66z m-270 -35 c3 -15 -1 -16 -30 -7 -18 6 -41
13 -50 16 -35 11 -17 19 29 13 34 -3 49 -10 51 -22z m-655 -74 c-4 -25 -2 -39
8 -45 10 -6 10 -9 2 -9 -7 0 -16 -1 -20 -2 -3 -2 -8 18 -10 45 -3 37 -1 47 11
47 11 0 13 -8 9 -36z m-973 -79 c0 -16 -6 -25 -15 -25 -15 0 -21 31 -8 43 13
14 23 6 23 -18z m2162 11 c16 -12 14 -16 -21 -50 -35 -34 -40 -36 -64 -25 -43
19 -40 35 11 62 58 30 54 29 74 13z m1268 -24 c0 -4 -60 -22 -132 -39 -197
-47 -198 -47 -198 -30 0 8 6 14 13 14 6 -1 48 7 91 17 44 10 89 19 100 21 12
1 32 7 46 13 30 13 80 15 80 4z m-3875 -72 c-3 -5 -14 -10 -23 -10 -15 0 -15
2 -2 10 20 13 33 13 25 0z m1210 1 c-10 -8 -94 -31 -116 -31 -28 0 9 21 52 29
61 12 75 13 64 2z m2315 -10 c0 -5 -13 -11 -29 -14 -16 -3 -40 -9 -55 -13 -15
-3 -26 -2 -26 4 0 5 17 14 38 20 49 13 72 14 72 3z m487 -133 c-3 -7 -5 -2 -5
12 0 14 2 19 5 13 2 -7 2 -19 0 -25z m-4447 12 c-20 -13 -43 -13 -35 0 3 6 16
10 28 10 18 0 19 -2 7 -10z m3864 -35 c1 -19 -2 -35 -6 -35 -5 0 -8 19 -8 42
0 49 13 44 14 -7z m-1960 16 c3 -5 -1 -11 -9 -15 -9 -3 -15 0 -15 9 0 16 16
20 24 6z m-1725 -36 c23 0 24 -23 2 -30 -12 -3 -21 -11 -21 -16 0 -5 -6 -9
-12 -9 -8 0 -12 12 -11 32 2 42 1 40 16 31 6 -4 18 -8 26 -8z m341 5 c-20 -13
-33 -13 -25 0 3 6 14 10 23 10 15 0 15 -2 2 -10z m1224 -2 c-3 -4 -26 -8 -52
-8 -34 0 -43 3 -32 10 18 12 91 10 84 -2z m-885 -62 c14 -17 5 -25 -45 -36
-33 -8 -34 -7 -34 21 0 26 3 29 34 29 18 0 39 -6 45 -14z m586 -43 c-1 -27 -3
-51 -4 -55 0 -5 -17 -8 -36 -8 -35 0 -35 0 -35 45 0 38 4 47 23 55 48 19 55
14 52 -37z m-1745 23 c0 -2 3 -13 6 -23 6 -16 5 -16 -9 2 -13 16 -17 17 -31 6
-15 -13 -23 -2 -9 12 7 8 43 10 43 3z m980 -11 c0 -10 -10 -15 -30 -15 -29 0
-38 9 -23 23 13 13 53 7 53 -8z m664 -22 c4 -29 2 -41 -11 -50 -13 -10 -14
-13 -2 -14 27 -1 -25 -18 -58 -18 -36 -1 -41 11 -21 54 6 14 19 25 29 25 10 0
21 9 24 20 10 33 32 23 39 -17z m2321 1 c-22 -8 -49 -13 -60 -11 -15 2 -12 6
15 14 19 6 46 11 60 11 20 1 16 -3 -15 -14z m-3965 -31 c0 -9 -6 -13 -14 -10
-8 3 -17 1 -20 -6 -2 -7 -5 0 -5 14 -1 14 2 29 6 32 9 10 33 -13 33 -30z
m2085 27 c-3 -5 -12 -10 -20 -10 -8 0 -17 5 -20 10 -4 6 5 10 20 10 15 0 24
-4 20 -10z m190 -8 c33 -2 63 -7 68 -11 9 -9 -138 -5 -153 4 -18 11 -11 28 8
19 9 -4 44 -10 77 -12z m-415 -17 c0 -8 -4 -15 -9 -15 -5 0 -16 -3 -25 -6 -12
-4 -16 0 -16 15 0 16 6 21 25 21 16 0 25 -6 25 -15z m-552 -36 c-19 -13 -28
-11 -28 6 0 21 34 38 38 18 2 -9 -2 -19 -10 -24z m-1338 -9 c10 0 21 6 23 13
4 7 6 8 6 1 1 -18 -27 -37 -44 -30 -8 3 -15 13 -14 23 0 11 3 13 6 6 2 -7 13
-13 23 -13z m1458 -8 c3 -9 -3 -13 -19 -10 -12 1 -24 9 -27 16 -3 9 3 13 19
10 12 -1 24 -9 27 -16z m782 -34 l0 -33 -21 25 c-15 18 -19 20 -15 7 3 -10 6
-25 6 -33 0 -8 7 -14 15 -14 8 0 15 -4 15 -10 0 -5 -11 -10 -24 -10 -20 0 -25
6 -28 38 -6 49 -1 62 28 62 20 0 24 -5 24 -32z m-575 2 c-3 -5 -10 -10 -16
-10 -5 0 -9 5 -9 10 0 6 7 10 16 10 8 0 12 -4 9 -10z m2570 0 c3 -5 -1 -10
-10 -10 -9 0 -13 5 -10 10 3 6 8 10 10 10 2 0 7 -4 10 -10z m-4188 -6 c-3 -3
-12 -4 -19 -1 -8 3 -5 6 6 6 11 1 17 -2 13 -5z m863 -4 c0 -11 -48 -25 -56
-17 -4 3 -3 10 1 16 8 14 55 14 55 1z m1260 6 c0 -3 -4 -8 -10 -11 -5 -3 -10
-1 -10 4 0 6 5 11 10 11 6 0 10 -2 10 -4z m-2193 -12 c-3 -3 -12 -4 -19 -1 -8
3 -5 6 6 6 11 1 17 -2 13 -5z m170 -10 c8 -22 -22 -44 -59 -44 -34 0 -37 22
-6 44 29 21 57 20 65 0z m1478 6 c-3 -5 -13 -10 -21 -10 -8 0 -14 5 -14 10 0
6 9 10 21 10 11 0 17 -4 14 -10z m2480 0 c-3 -5 -23 -9 -43 -9 l-37 1 30 8
c44 11 57 11 50 0z m-1985 -10 c0 -5 -7 -10 -16 -10 -8 0 -12 5 -9 10 3 6 10
10 16 10 5 0 9 -4 9 -10z m1744 -72 c-9 -52 -11 -55 -37 -55 -22 0 -25 4 -25
38 -1 31 3 39 21 42 46 9 47 8 41 -25z m-3851 -66 c-1 -48 -3 -169 -4 -269 -2
-159 -4 -183 -18 -183 -13 0 -17 14 -19 69 -1 42 2 72 8 76 7 4 8 11 2 18 -5
7 -8 53 -6 102 2 50 3 112 3 139 0 29 5 53 13 58 10 8 10 11 1 15 -23 9 -8 63
17 63 3 0 4 -39 3 -88z m3767 44 c0 -28 -29 -67 -36 -48 -8 18 -24 15 -24 -5
0 -9 -3 -13 -7 -9 -10 9 -11 86 -1 86 3 0 8 -6 11 -12 3 -10 9 -9 22 4 22 21
35 15 35 -16z m-2522 -4 c2 -7 -2 -10 -12 -6 -9 3 -16 11 -16 16 0 13 23 5 28
-10z m76 -29 c-10 -7 -26 -13 -36 -13 -29 0 -21 25 15 42 29 14 32 14 36 0 2
-9 -5 -22 -15 -29z m2809 40 c-7 -2 -21 -2 -30 0 -10 3 -4 5 12 5 17 0 24 -2
18 -5z m155 -10 c36 1 63 -7 51 -16 -12 -10 -123 10 -127 21 -3 11 0 12 15 3
11 -5 38 -9 61 -8z m-355 -24 c-17 -17 -37 -1 -22 17 8 10 15 12 23 4 7 -7 7
-13 -1 -21z m-2493 1 c0 -5 -4 -10 -9 -10 -6 0 -13 5 -16 10 -3 6 1 10 9 10 9
0 16 -4 16 -10z m2070 -5 c0 -8 -7 -15 -15 -15 -16 0 -20 12 -8 23 11 12 23 8
23 -8z m-2265 -15 c-3 -5 -10 -10 -16 -10 -5 0 -9 5 -9 10 0 6 7 10 16 10 8 0
12 -4 9 -10z m1760 0 c3 -5 1 -10 -4 -10 -6 0 -11 5 -11 10 0 6 2 10 4 10 3 0
8 -4 11 -10z m585 -10 c0 -5 -7 -10 -15 -10 -8 0 -15 5 -15 10 0 6 7 10 15 10
8 0 15 -4 15 -10z m638 -30 c2 -24 2 -24 -13 -6 -15 19 -15 19 -15 -2 0 -11 8
-26 18 -31 15 -9 15 -10 -5 -11 -16 0 -23 6 -23 19 0 11 -4 23 -10 26 -14 8
11 35 30 32 8 -1 16 -13 18 -27z m-3751 4 c3 -9 13 -14 24 -11 24 6 25 -12 2
-20 -10 -3 -26 -13 -35 -21 -17 -14 -18 -12 -18 26 0 42 15 56 27 26z m3288
-4 c-3 -5 -10 -10 -16 -10 -5 0 -9 5 -9 10 0 6 7 10 16 10 8 0 12 -4 9 -10z
m-35 -10 c0 -5 -7 -10 -15 -10 -8 0 -15 5 -15 10 0 6 7 10 15 10 8 0 15 -4 15
-10z m400 -10 c0 -5 -5 -10 -11 -10 -5 0 -7 5 -4 10 3 6 8 10 11 10 2 0 4 -4
4 -10z m-624 -97 c-10 -10 -19 5 -10 18 6 11 8 11 12 0 2 -7 1 -15 -2 -18z
m1271 -45 c-3 -8 -6 -5 -6 6 -1 11 2 17 5 13 3 -3 4 -12 1 -19z m-2557 -223
c0 -14 -4 -25 -10 -25 -11 0 -14 33 -3 43 11 11 13 8 13 -18z m-1730 -67 c0
-4 7 -5 15 -2 8 4 15 1 15 -5 0 -7 -8 -14 -17 -17 -10 -3 -26 -10 -35 -15 -10
-5 -19 -5 -23 0 -3 5 1 11 7 14 10 3 10 9 1 25 -6 11 -9 22 -6 25 6 7 43 -15
43 -25z m1730 2 c0 -5 -4 -10 -10 -10 -5 0 -10 5 -10 10 0 6 5 10 10 10 6 0
10 -4 10 -10z m1997 -42 c-3 -7 -5 -2 -5 12 0 14 2 19 5 13 2 -7 2 -19 0 -25z
m-3657 -618 c0 -11 -4 -20 -10 -20 -5 0 -10 9 -10 20 0 11 5 20 10 20 6 0 10
-9 10 -20z m3340 -71 c0 -11 -4 -17 -10 -14 -5 3 -10 15 -10 26 0 11 5 17 10
14 6 -3 10 -15 10 -26z m-2070 -63 c0 -35 -18 -42 -30 -11 -13 35 -13 35 10
35 15 0 20 -7 20 -24z"/>
<path d="M2051 2584 c0 -11 3 -14 6 -6 3 7 2 16 -1 19 -3 4 -6 -2 -5 -13z"/>
<path d="M1935 2550 c-3 -5 1 -10 10 -10 9 0 13 5 10 10 -3 6 -8 10 -10 10 -2
0 -7 -4 -10 -10z"/>
<path d="M321 2124 c0 -11 3 -14 6 -6 3 7 2 16 -1 19 -3 4 -6 -2 -5 -13z"/>
</g>
</svg>
